<svg width="250" height="250" xmlns="http://www.w3.org/2000/svg">
  <!-- Row 1 -->
  <rect x="0" y="0" width="50" height="50" fill="black"/> <!-- Alive -->
  <rect x="50" y="0" width="50" height="50" fill="black"/> <!-- Dead -->
  <rect x="100" y="0" width="50" height="50" fill="black"/> <!-- Alive -->
  <rect x="150" y="0" width="50" height="50" fill="black"/> <!-- Dead -->
  <rect x="200" y="0" width="50" height="50" fill="black"/> <!-- Alive -->

  <!-- Row 2 -->
  <rect x="0" y="50" width="50" height="50" fill="black"/> <!-- Dead -->
  <rect x="50" y="50" width="50" height="50" fill="black"/> <!-- Alive -->
  <rect x="100" y="50" width="50" height="50" fill="white"/> <!-- Dead -->
  <rect x="150" y="50" width="50" height="50" fill="black"/> <!-- Alive -->
  <rect x="200" y="50" width="50" height="50" fill="black"/> <!-- Dead -->

  <!-- Row 3 -->
  <rect x="0" y="100" width="50" height="50" fill="black"/> <!-- Dead -->
  <rect x="50" y="100" width="50" height="50" fill="white"/> <!-- Alive -->
  <rect x="100" y="100" width="50" height="50" fill="black"/> <!-- Dead -->
  <rect x="150" y="100" width="50" height="50" fill="black"/> <!-- Alive -->
  <rect x="200" y="100" width="50" height="50" fill="black"/> <!-- Dead -->

  <!-- Row 4 -->
  <rect x="0" y="150" width="50" height="50" fill="black"/> <!-- Dead -->
  <rect x="50" y="150" width="50" height="50" fill="white"/> <!-- Alive -->
  <rect x="100" y="150" width="50" height="50" fill="white"/> <!-- Dead -->
  <rect x="150" y="150" width="50" height="50" fill="white"/> <!-- Alive -->
  <rect x="200" y="150" width="50" height="50" fill="black"/> <!-- Dead -->

  <!-- Row 5 -->
  <rect x="0" y="200" width="50" height="50" fill="black"/> <!-- Dead -->
  <rect x="50" y="200" width="50" height="50" fill="black"/> <!-- Alive -->
  <rect x="100" y="200" width="50" height="50" fill="black"/> <!-- Dead -->
  <rect x="150" y="200" width="50" height="50" fill="black"/> <!-- Alive -->
  <rect x="200" y="200" width="50" height="50" fill="black"/> <!-- Dead -->

</svg>
